<svg width="182" height="129" viewBox="0 0 182 129" fill="none" xmlns="http://www.w3.org/2000/svg">
<path d="M152.807 0.000267029H25.5332V78.3041H152.807V0.000267029Z" fill="#E52713"/>
<path d="M107.2 23.0541V24.4585H119.469C119.973 24.4018 120.482 24.4451 120.969 24.5861C121.456 24.7271 121.91 24.9629 122.305 25.28C122.624 25.6791 122.861 26.1375 123.002 26.6287C123.143 27.1199 123.185 27.6342 123.126 28.1419V40.3578C123.261 41.3843 122.985 42.4225 122.358 43.2461C121.55 43.8668 120.535 44.1517 119.522 44.0411H113.587C112.58 44.0411 111.255 44.0411 110.725 42.9282C110.577 42.4057 110.576 41.8527 110.72 41.3294C110.865 40.8061 111.151 40.3325 111.546 39.9603L119.496 29.3608H107.227L102.351 35.906C101.491 36.7919 100.951 37.9385 100.814 39.1653C100.943 40.3944 101.485 41.5435 102.351 42.4247L103.57 44.0411C104.594 45.7009 105.991 47.0984 107.651 48.1219C109.637 48.8669 111.767 49.1479 113.878 48.9434H119.178C122.225 48.9434 126.836 48.9434 129.777 45.896C131.999 43.3647 133.14 40.0639 132.957 36.701V31.8252C133.177 28.4804 132.084 25.1818 129.91 22.6301C126.862 19.5828 122.252 19.5828 119.31 19.5828H110.831C110.356 19.5217 109.874 19.5635 109.416 19.7052C108.959 19.847 108.538 20.0854 108.181 20.4042C107.856 20.758 107.612 21.1782 107.465 21.6358C107.319 22.0934 107.274 22.5773 107.333 23.0541" fill="white"/>
<path d="M92.5492 29.3624H104.765L90.0848 48.945H77.8689L92.5492 29.3624Z" fill="white"/>
<path d="M44.7985 32.8294C44.7409 32.3547 44.7843 31.8733 44.9259 31.4166C45.0675 30.9599 45.304 30.5383 45.6199 30.1795C45.9788 29.8635 46.4004 29.627 46.8571 29.4854C47.3137 29.3439 47.7952 29.3004 48.2698 29.358H68.7798C70.8824 29.1519 73.0042 29.433 74.9806 30.1795C76.6371 31.2161 78.0405 32.6105 79.0879 34.2603L80.3068 35.9032C81.1619 36.7893 81.6939 37.9374 81.8172 39.1626C81.6919 40.3872 81.1601 41.5346 80.3068 42.4219L75.4045 48.9406H63.1621L71.1118 38.3411C71.5096 37.9706 71.7969 37.4971 71.9419 36.9732C72.0869 36.4494 72.0839 35.8955 71.9332 35.3732C71.4297 34.2603 70.1048 34.2603 69.0713 34.2603H59.5053V58.7451H49.7008V34.2603H44.7985V32.8294Z" fill="white"/>
<path d="M25.2889 93.3655H28.2036C29.2835 93.3027 30.3551 93.5874 31.2615 94.1777C31.6286 94.475 31.9197 94.8554 32.1108 95.2874C32.3019 95.7194 32.3874 96.1907 32.3605 96.6623C32.3801 97.4629 32.1211 98.2454 31.6278 98.8761C31.2109 99.2874 30.7113 99.6053 30.1621 99.8085C29.6128 100.012 29.0266 100.096 28.4424 100.055H26.8498V104.514H25.2571L25.2889 93.3655ZM26.8816 98.6532H28.4743C29.0847 98.6691 29.6817 98.472 30.1625 98.0957C30.3427 97.9173 30.4838 97.7035 30.577 97.4677C30.6703 97.2319 30.7135 96.9794 30.7041 96.726C30.7176 96.4373 30.6574 96.1498 30.5293 95.8907C30.4011 95.6316 30.2092 95.4093 29.9714 95.2448C29.4635 94.9065 28.8609 94.7392 28.2513 94.767H26.8975L26.8816 98.6532Z" fill="#E3051B"/>
<path d="M41.3909 98.0482H42.1872L45.8186 93.3657H47.6979L43.5092 98.6375L48.0961 104.514H46.0256L42.1872 99.2905H41.3909V104.514H39.7982V99.2905H39.0019L35.1635 104.514H33.093L37.68 98.6375L33.4912 93.3657H35.3706L39.0178 98.0482H39.7982V93.3657H41.3909V98.0482Z" fill="#E3051B"/>
<path d="M49.4653 103.113C50.0259 102.159 50.4292 101.121 50.6598 100.039C50.8868 98.7774 51.004 97.4985 51.0102 96.2166V93.3657H57.3809V103.113H58.6551V107.047H57.0624V104.514H49.9272V107.047H48.3345V103.113H49.4653ZM52.5073 94.7672L52.4117 97.1244C52.3972 98.2266 52.2799 99.325 52.0614 100.405C51.8747 101.361 51.5244 102.277 51.0261 103.113H55.9156V94.7672H52.5073Z" fill="#E3051B"/>
<path d="M68.2435 99.1956V100.788H64.1025V99.1956H68.2435Z" fill="#E3051B"/>
<path d="M76.3161 93.3657V103.113H81.2215V93.3657H82.8142V103.113H84.0884V107.047H82.4957V104.514H74.6915V93.3657H76.3161Z" fill="#E3051B"/>
<path d="M87.1941 102.524L91.5422 96.3926H93.0393V104.515H91.5422V98.3835L87.1941 104.515H85.697V96.3926H87.1941V102.524Z" fill="#E3051B"/>
<path d="M100.86 96.3281C101.072 96.3068 101.286 96.3068 101.497 96.3281C104.125 96.3281 105.177 97.8252 105.177 100.517C105.234 101.041 105.182 101.571 105.022 102.074C104.863 102.576 104.6 103.04 104.25 103.434C103.9 103.829 103.472 104.146 102.992 104.365C102.513 104.584 101.993 104.7 101.466 104.706C101.265 104.73 101.061 104.73 100.86 104.706V108.194H99.3792V104.578C99.1941 104.602 99.0068 104.602 98.8217 104.578C96.2734 104.578 95.063 102.985 95.063 100.389C95.063 98.1437 96.1142 96.2007 98.7739 96.2007C98.9753 96.1825 99.1778 96.1825 99.3792 96.2007V93.3657H100.86V96.3281ZM99.3792 97.4907C99.2363 97.4737 99.092 97.4737 98.9491 97.4907C97.0379 97.4907 96.6557 99.0834 96.6557 100.485C96.6557 101.887 97.1813 103.479 98.981 103.479C99.1131 103.497 99.247 103.497 99.3792 103.479V97.4907ZM100.86 103.416C101.035 103.43 101.211 103.43 101.386 103.416C102.979 103.416 103.584 101.823 103.584 100.421C103.584 99.0197 103.218 97.4907 101.306 97.4907C101.137 97.4749 100.966 97.4749 100.797 97.4907L100.86 103.416Z" fill="#E3051B"/>
<path d="M108.634 96.3922V97.4911C108.944 97.0726 109.35 96.7362 109.82 96.5113C110.289 96.2864 110.806 96.1799 111.326 96.201C111.807 96.1757 112.288 96.26 112.733 96.4476C113.177 96.6352 113.573 96.9212 113.89 97.2841C114.567 98.1501 114.917 99.2274 114.878 100.326C114.951 100.884 114.901 101.452 114.73 101.988C114.558 102.525 114.271 103.017 113.887 103.429C113.504 103.842 113.034 104.164 112.511 104.374C111.989 104.584 111.426 104.675 110.864 104.642C110.116 104.647 109.38 104.454 108.73 104.085V108.067H107.233V96.3922H108.634ZM108.634 102.556C109.274 103.146 110.121 103.461 110.992 103.432C111.278 103.434 111.562 103.374 111.824 103.256C112.085 103.138 112.317 102.964 112.505 102.747C113.037 102.062 113.303 101.208 113.253 100.342C113.303 99.5624 113.065 98.7915 112.584 98.176C112.391 97.9434 112.147 97.759 111.871 97.6373C111.594 97.5157 111.293 97.4602 110.992 97.4752C110.458 97.4967 109.943 97.6784 109.514 97.9965C109.085 98.3147 108.762 98.7546 108.587 99.259L108.634 102.556Z" fill="#E3051B"/>
<path d="M123.605 97.4915C124.299 98.3025 124.673 99.339 124.656 100.406C124.685 101.49 124.31 102.545 123.605 103.369C123.216 103.787 122.742 104.117 122.214 104.337C121.687 104.557 121.118 104.661 120.547 104.643C119.973 104.663 119.402 104.56 118.871 104.341C118.341 104.121 117.864 103.789 117.473 103.369C116.78 102.558 116.406 101.521 116.422 100.454C116.385 99.3745 116.748 98.3195 117.441 97.4915C117.832 97.0708 118.309 96.7393 118.84 96.5194C119.37 96.2996 119.942 96.1965 120.515 96.2174C121.092 96.1942 121.666 96.2961 122.2 96.5161C122.733 96.736 123.213 97.0688 123.605 97.4915ZM118.636 98.3834C118.215 98.9727 117.998 99.6824 118.015 100.406C117.994 101.13 118.212 101.841 118.636 102.429C118.856 102.728 119.144 102.971 119.476 103.137C119.809 103.304 120.176 103.388 120.547 103.384C120.917 103.388 121.281 103.304 121.611 103.137C121.941 102.971 122.226 102.728 122.442 102.429C122.866 101.841 123.084 101.13 123.064 100.406C123.084 99.682 122.866 98.9711 122.442 98.3834C122.224 98.0861 121.939 97.8446 121.609 97.6785C121.28 97.5124 120.916 97.4265 120.547 97.4278C120.168 97.4346 119.795 97.5286 119.458 97.7026C119.122 97.8766 118.829 98.1259 118.604 98.4312L118.636 98.3834Z" fill="#E3051B"/>
<path d="M129.878 96.3921C130.636 96.3417 131.392 96.5074 132.06 96.8699C132.329 97.0381 132.55 97.2734 132.7 97.5526C132.851 97.8318 132.927 98.1454 132.92 98.4626C132.92 98.9008 132.774 99.3267 132.506 99.673C132.247 99.9858 131.896 100.209 131.502 100.31C131.942 100.369 132.357 100.551 132.697 100.836C132.883 101.01 133.029 101.223 133.126 101.459C133.222 101.696 133.266 101.95 133.254 102.205C133.271 102.556 133.194 102.904 133.032 103.215C132.87 103.525 132.628 103.787 132.331 103.973C131.69 104.348 130.953 104.525 130.212 104.483H126.645V96.3602L129.878 96.3921ZM128.142 99.7367H129.639C130.081 99.7738 130.525 99.6971 130.929 99.5137C131.084 99.433 131.212 99.3085 131.297 99.1556C131.382 99.0026 131.42 98.8281 131.407 98.6537C131.416 98.4842 131.376 98.3157 131.291 98.1687C131.206 98.0216 131.08 97.9024 130.929 97.8255C130.573 97.6506 130.177 97.5736 129.782 97.6025H128.19L128.142 99.7367ZM128.142 103.304H129.973C130.443 103.335 130.907 103.194 131.279 102.906C131.388 102.808 131.474 102.687 131.532 102.552C131.589 102.418 131.617 102.272 131.614 102.126C131.618 101.92 131.568 101.717 131.467 101.538C131.366 101.358 131.219 101.209 131.04 101.106C130.599 100.898 130.11 100.81 129.623 100.852H128.03L128.142 103.304Z" fill="#E3051B"/>
<path d="M136.935 96.3926V99.578H138.528C139.375 99.5288 140.215 99.746 140.933 100.199C141.228 100.424 141.464 100.716 141.622 101.052C141.78 101.387 141.855 101.756 141.84 102.126C141.844 102.449 141.782 102.769 141.659 103.067C141.535 103.365 141.354 103.636 141.124 103.862C140.476 104.352 139.672 104.59 138.862 104.531H135.406V96.4086L136.935 96.3926ZM136.935 103.305H138.862C139.089 103.33 139.319 103.306 139.536 103.235C139.753 103.163 139.953 103.046 140.12 102.891C140.329 102.648 140.437 102.335 140.423 102.015C140.434 101.839 140.406 101.664 140.34 101.501C140.274 101.338 140.171 101.193 140.041 101.075C139.628 100.799 139.134 100.67 138.639 100.709H136.935V103.305ZM143.194 96.3926H144.691V104.515H143.194V96.3926Z" fill="#E3051B"/>
<path d="M148.304 100.787C148.31 101.45 148.553 102.088 148.989 102.587C149.248 102.862 149.562 103.079 149.911 103.224C150.259 103.37 150.634 103.44 151.012 103.431C151.89 103.398 152.74 103.116 153.465 102.619V104.116H153.242C152.503 104.434 151.704 104.586 150.9 104.562C150.317 104.607 149.731 104.527 149.182 104.326C148.632 104.126 148.132 103.81 147.715 103.399C146.984 102.553 146.608 101.458 146.664 100.341C146.633 99.7514 146.73 99.1616 146.947 98.6121C147.164 98.0625 147.496 97.566 147.922 97.1561C148.623 96.5351 149.534 96.2048 150.47 96.2324C150.975 96.1971 151.481 96.2828 151.947 96.4822C152.412 96.6816 152.823 96.9891 153.146 97.3791C153.753 98.2396 154.066 99.273 154.038 100.326V100.756L148.304 100.787ZM152.493 99.6726C152.511 99.1458 152.348 98.6287 152.031 98.2073C151.84 97.9708 151.597 97.7817 151.321 97.6546C151.044 97.5275 150.742 97.4659 150.438 97.4747C150.128 97.474 149.821 97.5473 149.544 97.6885C149.267 97.8298 149.028 98.0349 148.846 98.2869C148.56 98.6978 148.385 99.1748 148.336 99.6726H152.493Z" fill="#E3051B"/>
<path d="M7.02372 116.863V124.97H5.5266V118.074H1.4971V124.97H0V116.863H7.02372Z" fill="#E3051B"/>
<path d="M9.93709 117.198C10.8419 116.899 11.7875 116.744 12.7402 116.736C13.6101 116.678 14.4679 116.964 15.1292 117.532C15.4233 117.876 15.6431 118.277 15.7747 118.711C15.9062 119.144 15.9468 119.599 15.8937 120.049V123.346C15.8638 123.876 15.8638 124.408 15.8937 124.938H14.4922V123.855C14.1733 124.25 13.7669 124.564 13.3053 124.775C12.8436 124.985 12.3393 125.084 11.8324 125.066C11.1406 125.083 10.4608 124.883 9.88931 124.492C9.60184 124.284 9.37012 124.007 9.21459 123.688C9.05905 123.368 8.98447 123.016 8.99741 122.661C8.99121 122.218 9.10674 121.781 9.33141 121.399C9.55608 121.017 9.88128 120.704 10.2716 120.495C11.233 120.054 12.2913 119.868 13.3454 119.953H14.3648V119.507C14.3837 119.285 14.3503 119.061 14.2674 118.853C14.1844 118.646 14.0541 118.461 13.8869 118.313C13.4595 117.999 12.9348 117.847 12.4057 117.883C11.5992 117.87 10.8031 118.067 10.0964 118.456L9.93709 117.198ZM14.3966 121.116H13.5366C12.7347 121.038 11.9273 121.193 11.2112 121.562C11.0272 121.675 10.8761 121.835 10.7727 122.025C10.6694 122.215 10.6174 122.429 10.6219 122.645C10.6151 122.824 10.6504 123.003 10.7251 123.166C10.7998 123.329 10.9118 123.472 11.052 123.584C11.394 123.818 11.8002 123.941 12.2146 123.935C12.8073 123.933 13.377 123.705 13.8073 123.298C14.1683 122.903 14.3624 122.383 14.3488 121.848L14.3966 121.116Z" fill="#E3051B"/>
<path d="M23.7161 118.298C23.2117 118.083 22.6715 117.964 22.1234 117.948C21.5383 117.973 20.9781 118.191 20.5307 118.569C20.2209 118.876 19.9776 119.244 19.816 119.65C19.6543 120.055 19.5778 120.49 19.591 120.926C19.5737 121.655 19.7915 122.37 20.2122 122.965C20.4695 123.265 20.7899 123.505 21.1505 123.667C21.5111 123.83 21.9031 123.911 22.2986 123.904C22.8629 123.907 23.4159 123.747 23.8912 123.442L24.0027 124.78C23.404 125.012 22.7649 125.12 22.1234 125.099C21.5598 125.144 20.9933 125.064 20.4639 124.866C19.9346 124.668 19.4553 124.355 19.0602 123.951C18.665 123.547 18.3636 123.06 18.1773 122.527C17.9911 121.993 17.9245 121.425 17.9824 120.862C17.9665 120.261 18.0839 119.663 18.3263 119.113C18.5686 118.562 18.9298 118.072 19.384 117.677C20.161 117.056 21.1291 116.724 22.1234 116.737C22.7423 116.74 23.3562 116.848 23.939 117.056L23.7161 118.298Z" fill="#E3051B"/>
<path d="M30.9147 118.298C30.4103 118.083 29.8701 117.964 29.322 117.947C28.737 117.972 28.1768 118.191 27.7294 118.569C27.4029 118.879 27.146 119.256 26.9758 119.673C26.8056 120.09 26.7259 120.539 26.7419 120.989C26.7246 121.718 26.9424 122.433 27.363 123.028C27.6204 123.328 27.9408 123.568 28.3014 123.731C28.662 123.893 29.054 123.974 29.4494 123.968C30.0137 123.97 30.5668 123.81 31.0421 123.506L31.1536 124.844C30.5549 125.075 29.9157 125.183 29.2742 125.162C28.7107 125.207 28.1442 125.128 27.6148 124.929C27.0854 124.731 26.6062 124.419 26.211 124.014C25.8159 123.61 25.5145 123.124 25.3282 122.59C25.142 122.056 25.0754 121.488 25.1333 120.926C25.1174 120.324 25.2348 119.727 25.4771 119.176C25.7195 118.625 26.0807 118.135 26.5348 117.74C27.3119 117.12 28.2799 116.788 29.2742 116.801C29.8931 116.803 30.5071 116.911 31.0899 117.119L30.9147 118.298Z" fill="#E3051B"/>
<path d="M33.193 117.198C34.0978 116.899 35.0435 116.744 35.9962 116.736C36.8661 116.678 37.7238 116.964 38.3852 117.532C38.6793 117.876 38.899 118.277 39.0306 118.711C39.1622 119.144 39.2027 119.599 39.1497 120.049V123.346C39.1197 123.876 39.1197 124.408 39.1497 124.938H37.8914V123.855C37.5726 124.25 37.1662 124.564 36.7045 124.775C36.2429 124.985 35.7386 125.084 35.2317 125.066C34.5399 125.083 33.8601 124.883 33.2886 124.492C33.0011 124.284 32.7694 124.007 32.6139 123.688C32.4583 123.368 32.3838 123.016 32.3967 122.661C32.3905 122.218 32.506 121.781 32.7307 121.399C32.9554 121.017 33.2806 120.704 33.6708 120.495C34.6322 120.054 35.6906 119.868 36.7447 119.953H37.764V119.507C37.783 119.285 37.7496 119.061 37.6667 118.853C37.5837 118.646 37.4534 118.461 37.2862 118.313C36.8588 117.999 36.3341 117.847 35.805 117.883C34.9985 117.87 34.2024 118.067 33.4956 118.456L33.193 117.198ZM37.6525 121.116H36.7925C35.9906 121.038 35.1833 121.193 34.4672 121.562C34.2832 121.675 34.132 121.835 34.0287 122.025C33.9253 122.215 33.8734 122.429 33.8779 122.645C33.871 122.824 33.9064 123.003 33.981 123.166C34.0557 123.329 34.1677 123.472 34.3079 123.584C34.65 123.818 35.0561 123.941 35.4706 123.935C36.0633 123.933 36.633 123.705 37.0633 123.298C37.4243 122.903 37.6183 122.383 37.6048 121.848L37.6525 121.116Z" fill="#E3051B"/>
<path d="M47.3343 120.256H48.1147L50.2808 116.863H52.0168L49.3411 120.734L52.5265 124.97H50.6312L48.1147 121.275H47.3184V124.97H45.8531V121.275H45.0568L42.5403 124.97H40.7087L43.8941 120.734L41.2184 116.863H42.9544L45.1205 120.256H45.9009V116.863H47.398L47.3343 120.256Z" fill="#E3051B"/>
<path d="M55.5384 122.995L59.9023 116.863H61.3995V124.97H59.9023V118.854L55.5384 124.97H54.0413V116.863H55.5384V122.995Z" fill="#E3051B"/>
<path d="M65.3805 116.867V118.029C65.6972 117.599 66.117 117.256 66.6013 117.03C67.0855 116.805 67.6187 116.705 68.1518 116.739C68.6359 116.711 69.12 116.795 69.5671 116.982C70.0143 117.17 70.4127 117.457 70.7319 117.822C71.4091 118.688 71.7588 119.766 71.7194 120.864C71.7813 121.421 71.7204 121.984 71.5407 122.514C71.3611 123.044 71.0672 123.529 70.6798 123.933C70.2924 124.337 69.8209 124.651 69.2988 124.853C68.7766 125.055 68.2165 125.139 67.658 125.101C66.9115 125.11 66.1756 124.923 65.5238 124.559V128.541H64.0267V116.867H65.3805ZM65.3805 123.03C66.0206 123.621 66.8674 123.935 67.7377 123.906C68.0375 123.918 68.3362 123.863 68.6118 123.745C68.8874 123.626 69.133 123.447 69.3304 123.221C69.8627 122.537 70.1286 121.682 70.0789 120.816C70.1291 120.037 69.891 119.266 69.41 118.65C69.2149 118.421 68.9702 118.238 68.6943 118.117C68.4184 117.995 68.1185 117.938 67.8173 117.95C67.2837 117.971 66.7689 118.153 66.34 118.471C65.911 118.789 65.5878 119.229 65.4124 119.733L65.3805 123.03Z" fill="#E3051B"/>
<path d="M78.965 118.298C78.4606 118.083 77.9204 117.964 77.3723 117.947C76.7873 117.972 76.2271 118.191 75.7796 118.569C75.4416 118.874 75.1729 119.247 74.9915 119.665C74.8102 120.083 74.7205 120.534 74.7285 120.989C74.7111 121.718 74.9289 122.433 75.3496 123.028C75.607 123.328 75.9274 123.568 76.288 123.731C76.6486 123.893 77.0406 123.974 77.436 123.968C78.0003 123.97 78.5533 123.81 79.0287 123.506L79.1402 124.844C78.5415 125.075 77.9023 125.183 77.2608 125.162C76.6973 125.207 76.1308 125.128 75.6014 124.929C75.072 124.731 74.5927 124.419 74.1976 124.014C73.8024 123.61 73.501 123.124 73.3148 122.59C73.1285 122.056 73.062 121.488 73.1199 120.926C73.104 120.324 73.2214 119.727 73.4637 119.176C73.706 118.625 74.0672 118.135 74.5214 117.74C75.2984 117.12 76.2665 116.788 77.2608 116.801C77.8797 116.803 78.4937 116.911 79.0765 117.119L78.965 118.298Z" fill="#E3051B"/>
<path d="M80.8927 116.863H82.3898V120.16H83.3932L86.1326 116.863H88.012L84.5559 120.734L88.3146 124.97H86.276L83.2339 121.434H82.3898V124.97H80.8927V116.863Z" fill="#E3051B"/>
<path d="M91.2134 122.995L95.5774 116.863H97.0745V124.97H95.5774V118.854L91.2134 124.97H89.7163V116.863H91.2134V122.995Z" fill="#E3051B"/>
<path d="M100.675 121.26C100.681 121.922 100.924 122.561 101.36 123.059C101.62 123.336 101.937 123.554 102.288 123.7C102.64 123.845 103.018 123.915 103.398 123.904C104.275 123.863 105.124 123.582 105.851 123.091V124.572H105.628C104.892 124.898 104.091 125.05 103.287 125.018C102.705 125.06 102.121 124.98 101.573 124.783C101.024 124.585 100.523 124.275 100.101 123.872C99.3709 123.025 98.9945 121.93 99.0502 120.814C99.0196 120.224 99.1161 119.634 99.3331 119.084C99.5502 118.535 99.8828 118.038 100.308 117.628C101.009 117.007 101.921 116.677 102.857 116.705C103.364 116.667 103.874 116.751 104.342 116.951C104.81 117.15 105.224 117.459 105.548 117.851C106.155 118.712 106.468 119.745 106.44 120.798V121.228L100.675 121.26ZM104.879 120.145C104.897 119.618 104.734 119.101 104.418 118.68C104.226 118.443 103.983 118.254 103.707 118.127C103.431 118 103.129 117.938 102.825 117.947C102.514 117.946 102.207 118.02 101.93 118.161C101.654 118.302 101.414 118.507 101.232 118.759C100.947 119.17 100.771 119.647 100.723 120.145H104.879Z" fill="#E3051B"/>
<path d="M116.799 117.325V118.488C117.108 118.07 117.515 117.733 117.984 117.508C118.454 117.283 118.971 117.177 119.491 117.198C119.975 117.17 120.459 117.253 120.906 117.441C121.353 117.629 121.752 117.916 122.071 118.281C122.748 119.147 123.098 120.224 123.058 121.323C123.123 121.881 123.064 122.446 122.885 122.978C122.707 123.51 122.413 123.996 122.025 124.402C121.638 124.808 121.165 125.124 120.642 125.326C120.119 125.529 119.557 125.614 118.997 125.575C118.249 125.58 117.513 125.388 116.863 125.018V129H115.366V117.325H116.799ZM116.799 123.489C117.439 124.08 118.286 124.394 119.156 124.365C119.456 124.377 119.755 124.322 120.03 124.203C120.306 124.085 120.551 123.906 120.749 123.68C121.281 122.996 121.547 122.141 121.497 121.275C121.548 120.496 121.31 119.725 120.829 119.109C120.633 118.879 120.389 118.697 120.113 118.576C119.837 118.454 119.537 118.397 119.236 118.408C118.702 118.43 118.187 118.612 117.758 118.93C117.33 119.248 117.006 119.688 116.831 120.192L116.799 123.489Z" fill="#E3051B"/>
<path d="M126.147 121.72C126.153 122.382 126.396 123.021 126.832 123.52C127.093 123.796 127.41 124.015 127.761 124.16C128.113 124.306 128.491 124.375 128.871 124.364C129.749 124.33 130.599 124.048 131.324 123.551V125.049H131.101C130.362 125.366 129.563 125.518 128.759 125.495C128.177 125.536 127.591 125.455 127.042 125.254C126.493 125.054 125.993 124.739 125.574 124.332C124.844 123.486 124.467 122.39 124.523 121.274C124.492 120.684 124.589 120.094 124.806 119.544C125.023 118.995 125.355 118.498 125.781 118.089C126.482 117.468 127.393 117.137 128.329 117.165C128.837 117.127 129.346 117.211 129.815 117.411C130.283 117.61 130.697 117.919 131.021 118.312C131.628 119.172 131.941 120.205 131.913 121.258V121.688L126.147 121.72ZM130.352 120.605C130.37 120.078 130.207 119.561 129.89 119.14C129.699 118.903 129.456 118.714 129.18 118.587C128.903 118.46 128.602 118.398 128.298 118.407C127.987 118.406 127.68 118.48 127.403 118.621C127.126 118.762 126.887 118.967 126.705 119.219C126.42 119.63 126.244 120.107 126.195 120.605H130.352Z" fill="#E3051B"/>
<path d="M133.954 117.324H135.451V124.236H138.334V117.324H139.831V124.236H142.682V117.324H144.179V125.447H133.922L133.954 117.324Z" fill="#E3051B"/>
<path d="M147.809 121.72C147.815 122.382 148.058 123.021 148.494 123.52C148.755 123.796 149.072 124.015 149.423 124.16C149.774 124.306 150.153 124.375 150.533 124.364C151.411 124.33 152.261 124.048 152.986 123.551V125.049H152.763C152.024 125.366 151.225 125.518 150.421 125.495C149.838 125.536 149.253 125.455 148.704 125.254C148.155 125.054 147.655 124.739 147.236 124.332C146.505 123.486 146.129 122.39 146.185 121.274C146.154 120.684 146.251 120.094 146.468 119.544C146.685 118.995 147.017 118.498 147.443 118.089C148.144 117.468 149.055 117.137 149.991 117.165C150.499 117.127 151.008 117.211 151.477 117.411C151.945 117.61 152.359 117.919 152.683 118.312C153.29 119.172 153.603 120.205 153.575 121.258V121.688L147.809 121.72ZM152.014 120.605C152.032 120.078 151.869 119.561 151.552 119.14C151.361 118.903 151.118 118.714 150.842 118.587C150.565 118.46 150.263 118.398 149.959 118.407C149.649 118.406 149.342 118.48 149.065 118.621C148.788 118.762 148.549 118.967 148.367 119.219C148.081 119.63 147.906 120.107 147.857 120.605H152.014Z" fill="#E3051B"/>
<path d="M157.155 120.621H161.296V117.324H162.793V125.447H161.296V121.831H157.155V125.447H155.658V117.324H157.155V120.621Z" fill="#E3051B"/>
<path d="M166.792 123.456L171.156 117.324H172.653V125.447H171.156V119.315L166.792 125.447H165.295V117.324H166.792V123.456Z" fill="#E3051B"/>
<path d="M181.032 125.446H179.535V122.26H178.053L176.461 125.446H174.693L176.604 121.974C176.114 121.88 175.67 121.621 175.346 121.241C174.99 120.79 174.814 120.222 174.852 119.648C174.855 119.314 174.93 118.984 175.073 118.681C175.216 118.379 175.423 118.111 175.68 117.896C176.212 117.479 176.867 117.249 177.544 117.243H181.079L181.032 125.446ZM177.846 118.454C177.645 118.437 177.443 118.464 177.253 118.533C177.064 118.602 176.891 118.711 176.747 118.852C176.626 118.976 176.53 119.123 176.467 119.284C176.404 119.446 176.375 119.618 176.381 119.792C176.378 119.962 176.409 120.132 176.472 120.29C176.535 120.449 176.628 120.593 176.747 120.716C176.892 120.857 177.064 120.966 177.253 121.037C177.443 121.109 177.644 121.14 177.846 121.13H179.439V118.454H177.846Z" fill="#E3051B"/>
</svg>
